<?xml version="1.0" encoding="UTF-8"?>
<svg id="Layer_1" data-name="Layer 1" xmlns="http://www.w3.org/2000/svg" viewBox="0 0 541.48 47.28" fill="red">
  <path d="M43.59,30.63c-2.97,5.06-5.97,10.18-9.15,15.62-4.03-5.14-7-10.62-10.73-16.12-3.43,5.63-5.43,11.52-8.57,16.95H0C.36,45.1,20.49,2.55,21.98,.65c2.33,3.09,3.85,6.58,5.83,9.78,1.99,3.21,3.9,6.48,6.02,10.01,4.49-6.5,7.83-13.34,12.11-19.63,.89,.9,5.76,10.69,7.7,14.99,2.32,5.13,4.81,10.18,7.23,15.27,2.4,5.06,4.79,10.13,7.38,15.63-5.51,.08-10.56,.05-15.66,.02-.39-.64-.77-1.17-1.06-1.75-2.01-4.09-3.99-8.19-6.02-12.27-.38-.77-.57-1.78-1.92-2.07Z"/>
  <path d="M466.61,30.73c-.61-1.68-1.92-1.86-3.3-1.87-2.74-.02-5.49-.09-8.23,0-6.18,.21-11.62-3.23-13.44-9.94-1.06-3.91-1.02-7.66,.59-11.38,1.95-4.52,5.59-6.62,10.35-6.95,2.4-.17,4.82-.06,7.23-.06,5.24,0,10.48,0,15.72,0,.9,0,1.81,0,2.62,0,.64,1.93,.77,8.59,.25,11.78-.81,.06-1.69,.17-2.57,.17-6.4,.02-12.81,0-19.21,.02-1.15,0-2.36-.13-3.19,.93,.08,1.94,.44,2.45,2.19,2.51,2.33,.09,4.66-.03,6.99,.05,2.48,.08,4.99,.1,7.44,.47,5.75,.88,9.57,4.38,10.11,11.1,.25,3.05,.03,6.03-.86,9.07-1.59,5.39-8.42,9.97-13.12,10.05-7.98,.14-15.97,.04-23.95,.03-.16,0-.32-.09-.77-.24-.45-4.13-.18-8.38-.14-12.9,1.02-.08,1.9-.2,2.78-.2,5.91-.02,11.81,0,17.72-.01,.75,0,1.51,.02,2.24-.1,1.34-.23,2.27-.96,2.55-2.5Z"/>
  <path d="M323.3,.73c.59-.07,1.23-.2,1.87-.2,6.07,0,12.14-.02,18.21,.05,2.85,.03,5.61,.63,8.14,2.03,3.54,1.96,5.43,4.96,5.81,8.97,.54,5.7-2.21,9.63-6.74,12.64-.54,.36-1.1,.71-1.83,1.18,2.98,7.41,7.42,14.06,10.39,21.79-3.75,.02-7.28,.05-11.02-.02-4.15-6.55-6.61-13.99-10.94-20.84-.22,.64-.47,1.02-.47,1.41,0,5.79,.04,11.58,.05,17.37,0,.57-.09,1.13-.16,1.95-4.49,.28-8.92,.21-13.3,.04-.52-2.33-.52-44.1-.01-46.38Zm13.6,16.21c1.57,0,2.82,.16,4.02-.05,1.02-.18,2.11-.59,2.92-1.21,1.66-1.29,1.24-3.44-.81-4-2.06-.57-4.18-.46-6.13-.13v5.39Z"/>
  <path d="M199.61,12.94v3.55c5.61,.13,11.06-.02,16.42,.1,.55,2.03,.65,9.94,.18,13.1-2.62,.33-5.35,.11-8.05,.15-2.74,.04-5.47,0-8.14,0-.9,1.44-.65,2.71-.32,4.26,.87,.08,1.75,.21,2.63,.22,3.91,.02,7.82,.01,11.73,.01,.81,0,1.63,0,2.36,0,.6,2.11,.67,10.06,.19,12.52-1.83,.45-26.5,.59-30.24,.16-.09-.5-.29-1.04-.29-1.58-.01-14.57-.01-29.14,0-43.7,0-.41,.09-.81,.17-1.48,5.04-.43,10.09-.12,15.11-.18,4.98-.06,9.96-.01,15.07-.01V12.71c-1.67,.52-3.5,.15-5.29,.22-1.91,.07-3.83,.02-5.74,.02-1.82,0-3.64,0-5.79,0Z"/>
  <path d="M541.48,47.11h-16.2c-2.95-2.93-5.88-5.83-9.16-9.09-.92,3.22-.1,6.04-.62,8.71-1.75,.59-10.59,.71-13.33,.2-.47-1.99-.5-44.24,.02-46.82,4.31-.12,8.68-.07,13.09-.04,.93,2.95-.19,5.9,.85,8.97,1.59-1.19,2.72-2.48,3.87-3.74,1.29-1.4,2.59-2.79,3.88-4.2,.65-.71,1.42-1.07,2.41-1.07,4.58,.03,9.16,.02,13.73,.03,.23,0,.46,.12,.89,.24-3.79,4-7.48,7.9-11.18,11.8-3.7,3.9-7.4,7.79-11.3,11.89,7.58,7.84,15.25,15.24,23.03,23.1Z"/>
  <path d="M141.71,24.1c7.47,7.85,15.19,15.09,22.8,22.98h-16.33c-2.65-3.03-5.52-6.06-9.21-8.95v8.9c-4.69,.3-9.12,.23-13.5,.05-.44-2.07-.56-43.36-.19-46.55,1.67-.61,10.27-.76,13.48-.18,.36,2.71,.09,5.49,.09,8.25,.88,.51,1.24-.13,1.68-.6,2.18-2.28,4.35-4.56,6.54-6.82,.34-.35,.75-.65,1.16-1.01h15.72c-.48,.7-.73,1.18-1.09,1.57-.9,.98-1.85,1.9-2.77,2.86-4.55,4.72-9.1,9.42-13.62,14.16-1.54,1.61-2.98,3.31-4.77,5.32Z"/>
  <path d="M391.65,47.03c-4.31,.41-13.73,.27-15.64-.23,8.16-15.36,16.31-30.68,24.59-46.25,.45,.51,.81,.81,1.01,1.19,2.51,4.76,4.98,9.55,7.48,14.31,3.59,6.81,7.22,13.61,10.8,20.43,1.81,3.44,3.55,6.92,5.31,10.36-1.62,.48-11.34,.62-15.44,.16-1.36-2.61-2.77-5.41-4.27-8.15-1.5-2.74-3.09-5.43-4.83-8.47-3.3,5.62-6.28,11.07-9,16.66Z"/>
  <path d="M276.32,13.06c-2.99-.08-5.77-.15-8.85-.23-.03-4.25-.06-8.27,.02-12.47,.76-.11,1.39-.29,2.01-.29,8.82-.02,17.64-.01,26.46,0,.49,0,.98,.1,1.58,.17,.78,2.02,.28,4.09,.37,6.12,.09,2.06,.02,4.13,.02,6.51-2.82,.06-5.69,.11-8.82,.18-.1,1.08-.25,2.03-.25,2.98-.02,9.27-.01,18.54-.01,27.82,0,.98,0,1.96,0,2.87-2,.63-9.46,.72-12.24,.17-.04-.91-.11-1.88-.11-2.85,0-9.27,0-18.54,0-27.82,0-.96-.1-1.93-.17-3.14Z"/>
  <path d="M85.53,.16h14.43c.16,.18,.23,.23,.27,.3,.05,.06,.1,.14,.12,.21,.05,.33,.12,.65,.12,.98,0,14.72,0,29.44,0,44.17,0,.32-.09,.65-.17,1.24-4.93,.32-9.85,.17-14.73,.08-.47-2.24-.51-44.41-.03-46.97Z"/>
</svg>